# xmcd
#
# Track frame offsets:
#	150
#	18856
#	33203
#	51374
#	70538
#	91467
#	106068
#	124719
#	145678
#	162282
#	177618
#	194915
#
# Disc length: 2975 seconds
# Revision: 0
# Processed by: cddbd v1.5.2PL0 Copyright (c) Steve Scherf et al.
# Submitted via: dBpowerAMP V12.0
#
DISCID=a00b9d0c
DTITLE=Roberta Flack - Let it be
DYEAR=2012
DGENRE=R&B
TTITLE0=In my life
TTITLE1=Hey Jude
TTITLE2=We can work it out
TTITLE3=Let it be
TTITLE4=Oh darling
TTITLE5=I should have konwn better
TTITLE6=The long and winding road
TTITLE7=Come together
TTITLE8=Isn't it a pity
TTITLE9=If i feel
TTITLE10=And i love him
TTITLE11=Here, there and everywhere
EXTD=
EXTT0=
EXTT1=
EXTT2=
EXTT3=
EXTT4=
EXTT5=
EXTT6=
EXTT7=
EXTT8=
EXTT9=
EXTT10=
EXTT11=
PLAYORDER=
